<svg version="1.1" xmlns="http://www.w3.org/2000/svg" xmlns:xlink="http://www.w3.org/1999/xlink" viewBox="0 0 172 172"><defs><linearGradient x1="68.80717" y1="38.76092" x2="128.8495" y2="203.73042" gradientUnits="userSpaceOnUse" id="color-1"><stop offset="0" stop-color="#fed100"></stop><stop offset="1" stop-color="#e38101"></stop></linearGradient><linearGradient x1="28.85658" y1="51.50325" x2="54.12983" y2="120.94467" gradientUnits="userSpaceOnUse" id="color-2"><stop offset="0" stop-color="#6d6d6d"></stop><stop offset="0.126" stop-color="#626262"></stop><stop offset="0.886" stop-color="#464646"></stop><stop offset="1" stop-color="#454545"></stop></linearGradient><linearGradient x1="69.0365" y1="45.50117" x2="95.45283" y2="118.08517" gradientUnits="userSpaceOnUse" id="color-3"><stop offset="0" stop-color="#6d6d6d"></stop><stop offset="0.126" stop-color="#626262"></stop><stop offset="0.886" stop-color="#464646"></stop><stop offset="1" stop-color="#454545"></stop></linearGradient><linearGradient x1="108.74342" y1="37.57125" x2="135.74383" y2="111.75342" gradientUnits="userSpaceOnUse" id="color-4"><stop offset="0" stop-color="#6d6d6d"></stop><stop offset="0.126" stop-color="#626262"></stop><stop offset="0.886" stop-color="#464646"></stop><stop offset="1" stop-color="#454545"></stop></linearGradient></defs><g fill="none" fill-rule="nonzero" stroke="none" stroke-width="1" stroke-linecap="butt" stroke-linejoin="miter" stroke-miterlimit="10" stroke-dasharray="" stroke-dashoffset="0" font-family="none" font-weight="none" font-size="none" text-anchor="none" style="mix-blend-mode: normal"><path d="M0,172v-172h172v172z" fill="none"></path><g><path d="M118.25,139.75h-100.33333c-3.95958,0 -7.16667,-3.20708 -7.16667,-7.16667v-57.33333c0,-23.74675 19.25325,-43 43,-43h100.33333c3.95958,0 7.16667,3.20708 7.16667,7.16667v57.33333c0,23.74675 -19.25325,43 -43,43z" fill="url(#color-1)"></path><path d="M35.83333,91.90892v13.79942c0,0.989 -0.80267,1.79167 -1.79167,1.79167h-3.526c-0.989,0 -1.79167,-0.80267 -1.79167,-1.79167v-39.41667c0,-0.989 0.80267,-1.79167 1.79167,-1.79167h11.25167c4.93783,0 8.76842,1.15025 11.48817,3.45075c2.71617,2.29692 4.07783,5.53625 4.07783,9.71083c0,4.17817 -1.42258,7.59667 -4.26058,10.25908c-2.838,2.65525 -6.67575,3.98825 -11.51325,3.98825zM35.83333,70.37667v15.71292h4.61533c3.06017,0 5.38933,-0.7095 6.9875,-2.1285c1.60175,-1.419 2.40083,-3.41492 2.40083,-5.99492c0,-5.05967 -2.93833,-7.58592 -8.815,-7.58592h-5.18867z" fill="url(#color-2)"></path><path d="M83.59917,107.5c-6.04867,0 -10.89333,-1.94575 -14.534,-5.83367c-3.64067,-3.88792 -5.45742,-8.94758 -5.45742,-15.17542c0,-6.69367 1.85617,-12.02925 5.56492,-16.01392c3.70158,-3.98108 8.73617,-5.977 15.10017,-5.977c5.89458,0 10.63892,1.935 14.24017,5.805c3.60125,3.87 5.40367,8.92608 5.40367,15.17542c0,6.78683 -1.84542,12.15825 -5.53625,16.1035c-3.68725,3.94167 -8.61433,5.91608 -14.78125,5.91608zM83.91808,70.563c-3.84492,0 -6.97317,1.42258 -9.38117,4.26775c-2.41158,2.84158 -3.61558,6.58617 -3.61558,11.22658c0,4.6225 1.17175,8.34917 3.51167,11.16925c2.3435,2.82367 5.40725,4.23908 9.19125,4.23908c4.0205,0 7.19175,-1.34733 9.51375,-4.03483c2.322,-2.6875 3.483,-6.45 3.483,-11.28392c0,-4.97008 -1.12875,-8.81142 -3.38267,-11.51683c-2.24675,-2.71258 -5.35708,-4.06708 -9.32025,-4.06708z" fill="url(#color-3)"></path><path d="M111.08333,105.70833v-39.41667c0,-0.989 0.80267,-1.79167 1.79167,-1.79167h10.24117c15.85267,0 23.779,6.9875 23.779,20.9625c0,6.63633 -2.20017,11.96833 -6.59692,15.996c-4.40033,4.02767 -10.29492,6.0415 -17.69092,6.0415h-9.73233c-0.989,0 -1.79167,-0.80267 -1.79167,-1.79167zM118.19267,70.55942v30.91342h5.31408c5.02025,0 8.91892,-1.37958 11.71033,-4.13875c2.78783,-2.75917 4.18175,-6.65783 4.18175,-11.69242c0,-10.05483 -5.20658,-15.08225 -15.62333,-15.08225z" fill="url(#color-4)"></path></g></g></svg>